GIL08_slow4_ik
nRows=3
nColumns=375

# SIMM Motion File Header:
name GIL08_slow4_ik
datacolumns 375
datarows 3
otherdata 1
range 0.86667000 0.88333000
endheader
time	pelvis_tx	pelvis_ty	pelvis_tz	pelvis_tilt	pelvis_list	pelvis_rotation	hip_flexion_r	hip_adduction_r	hip_rotation_r	knee_angle_r	ankle_angle_r	hip_flexion_l	hip_adduction_l	hip_rotation_l	knee_angle_l	ankle_angle_l	lumbar_extension	lumbar_bending	lumbar_rotation	subtalar_angle_r	mtp_angle_r	subtalar_angle_l	mtp_angle_l	asis_r_px	asis_r_py	asis_r_pz	asis_l_px	asis_l_py	asis_l_pz	midasis_px	midasis_py	midasis_pz	psis_r_px	psis_r_py	psis_r_pz	psis_l_px	psis_l_py	psis_l_pz	hip_r_px	hip_r_py	hip_r_pz	hip_l_px	hip_l_py	hip_l_pz	midhip_px	midhip_py	midhip_pz	epicondLat_r_px	epicondLat_r_py	epicondLat_r_pz	epicondMed_r_px	epicondMed_r_py	epicondMed_r_pz	thighwand_r_px	thighwand_r_py	thighwand_r_pz	upperleg1_r_px	upperleg1_r_py	upperleg1_r_pz	upperleg2_r_px	upperleg2_r_py	upperleg2_r_pz	malleolusLat_r_px	malleolusLat_r_py	malleolusLat_r_pz	malleolusMedv_r_px	malleolusMedv_r_py	malleolusMedv_r_pz	shankwand_r_px	shankwand_r_py	shankwand_r_pz	lowerleg1_r_px	lowerleg1_r_py	lowerleg1_r_pz	knee_r_px	knee_r_py	knee_r_pz	ankle_r_px	ankle_r_py	ankle_r_pz	toe_r_px	toe_r_py	toe_r_pz	epicondLat_l_px	epicondLat_l_py	epicondLat_l_pz	epicondMed_l_px	epicondMed_l_py	epicondMed_l_pz	thighwand_l_px	thighwand_l_py	thighwand_l_pz	upperleg1_l_px	upperleg1_l_py	upperleg1_l_pz	upperleg2_l_px	upperleg2_l_py	upperleg2_l_pz	malleolusLat_l_px	malleolusLat_l_py	malleolusLat_l_pz	malleolusMedv_l_px	malleolusMedv_l_py	malleolusMedv_l_pz	shankwand_l_px	shankwand_l_py	shankwand_l_pz	lowerleg1_l_px	lowerleg1_l_py	lowerleg1_l_pz	knee_l_px	knee_l_py	knee_l_pz	ankle_l_px	ankle_l_py	ankle_l_pz	toe_l_px	toe_l_py	toe_l_pz	subclavicle_r_px	subclavicle_r_py	subclavicle_r_pz	subclavicle_l_px	subclavicle_l_py	subclavicle_l_pz	neck_px	neck_py	neck_pz	sternalnotch_px	sternalnotch_py	sternalnotch_pz	xyphoidprocess_px	xyphoidprocess_py	xyphoidprocess_pz	midhip_tx	midhip_ty	midhip_tz	hip_r_tx	hip_r_ty	hip_r_tz	hip_l_tx	hip_l_ty	hip_l_tz	knee_r_tx	knee_r_ty	knee_r_tz	knee_l_tx	knee_l_ty	knee_l_tz	ankle_r_tx	ankle_r_ty	ankle_r_tz	ankle_l_tx	ankle_l_ty	ankle_l_tz	midasis_tx	midasis_ty	midasis_tz	asis_r_tx	asis_r_ty	asis_r_tz	asis_l_tx	asis_l_ty	asis_l_tz	psis_r_tx	psis_r_ty	psis_r_tz	psis_l_tx	psis_l_ty	psis_l_tz	epicondLat_r_tx	epicondLat_r_ty	epicondLat_r_tz	epicondLat_l_tx	epicondLat_l_ty	epicondLat_l_tz	epicondMed_r_tx	epicondMed_r_ty	epicondMed_r_tz	epicondMed_l_tx	epicondMed_l_ty	epicondMed_l_tz	malleolusLat_r_tx	malleolusLat_r_ty	malleolusLat_r_tz	malleolusLat_l_tx	malleolusLat_l_ty	malleolusLat_l_tz	malleolusMedv_r_tx	malleolusMedv_r_ty	malleolusMedv_r_tz	malleolusMedv_l_tx	malleolusMedv_l_ty	malleolusMedv_l_tz	neck_tx	neck_ty	neck_tz	subclavicle_r_tx	subclavicle_r_ty	subclavicle_r_tz	subclavicle_l_tx	subclavicle_l_ty	subclavicle_l_tz	sternalnotch_tx	sternalnotch_ty	sternalnotch_tz	xyphoidprocess_tx	xyphoidprocess_ty	xyphoidprocess_tz	thighwand_r_tx	thighwand_r_ty	thighwand_r_tz	thighwand_l_tx	thighwand_l_ty	thighwand_l_tz	upperleg1_r_tx	upperleg1_r_ty	upperleg1_r_tz	upperleg1_l_tx	upperleg1_l_ty	upperleg1_l_tz	upperleg2_r_tx	upperleg2_r_ty	upperleg2_r_tz	upperleg2_l_tx	upperleg2_l_ty	upperleg2_l_tz	shankwand_r_tx	shankwand_r_ty	shankwand_r_tz	shankwand_l_tx	shankwand_l_ty	shankwand_l_tz	lowerleg1_r_tx	lowerleg1_r_ty	lowerleg1_r_tz	lowerleg1_l_tx	lowerleg1_l_ty	lowerleg1_l_tz	toe_r_tx	toe_r_ty	toe_r_tz	toe_l_tx	toe_l_ty	toe_l_tz	ground_force_vx	ground_force_vy	ground_force_vz	ground_force_px	ground_force_py	ground_force_pz	ground_force_vx	ground_force_vy	ground_force_vz	ground_force_px	ground_force_py	ground_force_pz	ground_torque_x	ground_torque_y	ground_torque_z	ground_torque_x	ground_torque_y	ground_torque_z	ground_marker_px	ground_marker_py	ground_marker_pz	ground_marker_px	ground_marker_py	ground_marker_pz	ground_marker_px	ground_marker_py	ground_marker_pz	ground_marker_px	ground_marker_py	ground_marker_pz	ground_marker_px	ground_marker_py	ground_marker_pz	ground_marker_px	ground_marker_py	ground_marker_pz	ground_marker_px	ground_marker_py	ground_marker_pz	ground_marker_px	ground_marker_py	ground_marker_pz	ground_marker_px	ground_marker_py	ground_marker_pz	ground_marker_px	ground_marker_py	ground_marker_pz	ground_marker_px	ground_marker_py	ground_marker_pz	ground_marker_px	ground_marker_py	ground_marker_pz	ground_marker_px	ground_marker_py	ground_marker_pz	ground_marker_px	ground_marker_py	ground_marker_pz	ground_marker_px	ground_marker_py	ground_marker_pz	ground_marker_px	ground_marker_py	ground_marker_pz	ground_marker_px	ground_marker_py	ground_marker_pz	ground_marker_px	ground_marker_py	ground_marker_pz	ground_marker_px	ground_marker_py	ground_marker_pz	ground_marker_px	ground_marker_py	ground_marker_pz	ground_marker_px	ground_marker_py	ground_marker_pz	ground_marker_px	ground_marker_py	ground_marker_pz	ground_marker_px	ground_marker_py	ground_marker_pz	ground_marker_px	ground_marker_py	ground_marker_pz	ground_marker_px	ground_marker_py	ground_marker_pz	ground_marker_px	ground_marker_py	ground_marker_pz	ground_marker_px	ground_marker_py	ground_marker_pz	ground_marker_px	ground_marker_py	ground_marker_pz	ground_marker_px	ground_marker_py	ground_marker_pz	ground_marker_px	ground_marker_py	ground_marker_pz	ground_marker_px	ground_marker_py	ground_marker_pz	ground_marker_px	ground_marker_py	ground_marker_pz	ground_marker_px	ground_marker_py	ground_marker_pz	ground_marker_px	ground_marker_py	ground_marker_pz	ground_marker_px	ground_marker_py	ground_marker_pz	ground_marker_px	ground_marker_py	ground_marker_pz	ground_marker_px	ground_marker_py	ground_marker_pz
      0.86667000	     -1.71569871	      0.94976977	      0.19892796	      5.32380443	     -1.34911805	      5.43215311	     14.69636260	      0.81724506	     -1.46711400	    -14.79435129	     -5.34807645	    -15.30733715	     -3.01078441	      5.62999737	    -23.85295292	      9.85167405	    -10.67083465	      2.73902273	      2.28184617	      0.00000000	      0.00000000	      0.00000000	      0.00000000	     -1.66027140	      0.97681593	      0.29278713	     -1.68725933	      0.97312498	      0.08158193	     -1.70415031	      0.95081985	      0.19782555	     -1.86966493	      0.96820144	      0.25638095	     -1.88323199	      0.96720420	      0.16926514	     -1.76251924	      0.89195419	      0.27493268	     -1.77531409	      0.88749103	      0.13664726	     -1.76891667	      0.88972261	      0.20578997	     -1.56365149	      0.49953039	      0.31417568	     -1.60313873	      0.50806189	      0.20056952	     -1.56417674	      0.62437708	      0.38808325	     -1.58135410	      0.68270571	      0.31645483	     -1.55634443	      0.60533268	      0.29306319	     -1.59264600	      0.06702732	      0.31245495	     -1.59837265	      0.06565373	      0.24416729	     -1.56889439	      0.14168227	      0.37521579	     -1.59102870	      0.19873499	      0.31450376	     -1.62374784	      0.50155356	      0.26869765	     -1.58656683	      0.08640879	      0.27014304	     -1.47390362	      0.04652004	      0.26009267	     -1.81791034	      0.45505605	      0.06232019	     -1.83422582	      0.46401484	      0.16892708	     -1.65453134	      0.56769817	      0.12095043	     -1.71812504	      0.63898002	      0.08285178	     -1.74288917	      0.55580492	      0.08213331	     -2.10102393	      0.12056756	      0.09030125	     -2.08809017	      0.12103827	      0.15893592	     -1.94659128	      0.14516652	      0.13081960	     -1.97270097	      0.22514950	      0.12096661	     -1.84905941	      0.47862888	      0.13471372	     -2.08236133	      0.13325360	      0.13073647	     -1.98833851	      0.04261227	      0.11267729	     -1.73124254	      1.35469429	      0.29122135	     -1.74396833	      1.36137391	      0.13623816	     -1.83652461	      1.43146431	      0.21441368	     -1.75019041	      1.35960315	      0.21085302	     -1.71527650	      1.15848724	      0.19263392	     -1.77302600	      0.88895200	      0.20849300	     -1.76923500	      0.87522200	      0.26049500	     -1.77860400	      0.87332900	      0.15435400	     -1.62661100	      0.48780800	      0.25609100	     -1.85131800	      0.46596100	      0.14029500	     -1.58734300	      0.07164300	      0.25046500	     -2.08849400	      0.11571100	      0.14785200	     -1.69716900	      0.97231700	      0.19890200	     -1.68793200	      0.97418400	      0.30355500	     -1.70640600	      0.97045100	      0.09424900	     -1.89638900	      0.99575400	      0.25565000	     -1.90438500	      0.99615700	      0.17131400	     -1.62274800	      0.48855500	      0.31546100	     -1.84993900	      0.46776700	      0.08083800	     -1.64138700	      0.49792300	      0.19457900	     -1.85185800	      0.46761900	      0.19140500	     -1.59245300	      0.07065200	      0.28810700	     -2.09239400	      0.11750500	      0.10858600	     -1.58684100	      0.07589300	      0.21749800	     -2.07793100	      0.12344900	      0.17681500	     -1.83279500	      1.45141200	      0.21551300	     -1.72923800	      1.37730600	      0.28935800	     -1.74251400	      1.38104400	      0.13425600	     -1.74847700	      1.38070200	      0.20894500	     -1.71380200	      1.17920800	      0.19435000	     -1.63192200	      0.58790600	      0.40122700	     -1.67836200	      0.56710300	      0.12241400	     -1.62696500	      0.65520300	      0.33373600	     -1.74551300	      0.64015900	      0.08863100	     -1.60571600	      0.57862000	      0.30628000	     -1.77025500	      0.55635900	      0.09296900	     -1.58859900	      0.14642300	      0.35600500	     -1.94099800	      0.15621500	      0.14692300	     -1.61041300	      0.20148000	      0.29413300	     -1.97080300	      0.23391700	      0.13681800	     -1.46381800	      0.04685900	      0.24679100	     -1.98495800	      0.04338900	      0.14594700	    -47.35083723	    346.61649982	      5.53025443	     -1.58964062	      0.00000000	      0.25617130	     43.03737142	    323.91378887	     -0.91438462	     -1.96579175	      0.00000000	      0.15521733	      0.00000000	      0.92446863	      0.00000000	      0.00000000	      0.25219662	      0.00000000	     -1.77302551	      0.88895154	      0.20849285	     -1.76923537	      0.87522179	      0.26049462	     -1.77860367	      0.87332916	      0.15435410	     -1.62661088	      0.48780814	      0.25609109	     -1.85131764	      0.46596101	      0.14029494	     -1.58734322	      0.07164347	      0.25046486	     -2.08849359	      0.11571112	      0.14785184	     -1.69716907	      0.97231746	      0.19890195	     -1.68793213	      0.97418356	      0.30355468	     -1.70640588	      0.97045130	      0.09424921	     -1.89638937	      0.99575388	      0.25564975	     -1.90438509	      0.99615705	      0.17131375	     -1.62274837	      0.48855522	      0.31546092	     -1.84993935	      0.46776694	      0.08083832	     -1.64138687	      0.49792314	      0.19457918	     -1.85185814	      0.46761870	      0.19140455	     -1.59245348	      0.07065240	      0.28810662	     -2.09239364	      0.11750478	      0.10858577	     -1.58684075	      0.07589301	      0.21749780	     -2.07793093	      0.12344943	      0.17681539	     -1.83279526	      1.45141232	      0.21551262	     -1.72923791	      1.37730610	      0.28935760	     -1.74251378	      1.38104355	      0.13425612	     -1.74847651	      1.38070214	      0.20894459	     -1.71380186	      1.17920756	      0.19434966	     -1.63192153	      0.58790570	      0.40122700	     -1.67836201	      0.56710309	      0.12241355	     -1.62696469	      0.65520328	      0.33373573	     -1.74551332	      0.64015943	      0.08863085	     -1.60571551	      0.57862049	      0.30628049	     -1.77025545	      0.55635923	      0.09296921	     -1.58859873	      0.14642312	      0.35600483	     -1.94099772	      0.15621537	      0.14692305	     -1.61041319	      0.20148034	      0.29413280	     -1.97080255	      0.23391694	      0.13681781	     -1.46381783	      0.04685867	      0.24679139	     -1.98495770	      0.04338894	      0.14594741
      0.87500000	     -1.70877459	      0.95074060	      0.19983085	      5.33153096	     -1.34775933	      5.32925306	     14.29217736	      0.91850384	     -1.18330478	    -14.88177038	     -5.20188415	    -14.96757828	     -3.15738736	      5.21206547	    -25.04916865	      8.45026832	    -10.63440440	      2.88560284	      2.19699249	      0.00000000	      0.00000000	      0.00000000	      0.00000000	     -1.65351975	      0.97777868	      0.29379398	     -1.68012988	      0.97412318	      0.08254023	     -1.69722443	      0.95179293	      0.19874927	     -1.86284641	      0.96913408	      0.25701234	     -1.87625773	      0.96815102	      0.16987226	     -1.75572050	      0.89290225	      0.27574086	     -1.76826763	      0.88846317	      0.13743196	     -1.76199407	      0.89068271	      0.20658641	     -1.55945301	      0.49912606	      0.31452511	     -1.59924897	      0.50787977	      0.20104364	     -1.55887220	      0.62400690	      0.38837454	     -1.57587716	      0.68242081	      0.31677448	     -1.55148089	      0.60486553	      0.29333865	     -1.59209258	      0.06679462	      0.31315380	     -1.59805146	      0.06543094	      0.24488582	     -1.56750758	      0.14128143	      0.37579337	     -1.58935482	      0.19848503	      0.31511935	     -1.61965972	      0.50154361	      0.26923976	     -1.58598658	      0.08610006	      0.27081101	     -1.47359099	      0.04553594	      0.26047147	     -1.80869525	      0.45612205	      0.06136796	     -1.82451314	      0.46450470	      0.16809663	     -1.64568325	      0.56946496	      0.11966824	     -1.70989199	      0.64053954	      0.08221946	     -1.73416845	      0.55722332	      0.08125162	     -2.09694691	      0.12493992	      0.08926015	     -2.08365053	      0.12488895	      0.15782710	     -1.94195437	      0.14703284	      0.12907852	     -1.96691407	      0.22744350	      0.11973973	     -1.83941991	      0.47897708	      0.13402654	     -2.07788621	      0.13715197	      0.12965559	     -1.98752628	      0.04292604	      0.11124818	     -1.72483924	      1.35546157	      0.29314358	     -1.73702911	      1.36254359	      0.13813518	     -1.82989752	      1.43237450	      0.21617264	     -1.74350997	      1.36057207	      0.21272298	     -1.70841668	      1.15952490	      0.19409448	     -1.76621600	      0.88954800	      0.20916900	     -1.76222900	      0.87627800	      0.26139100	     -1.77140300	      0.87435300	      0.15523400	     -1.62239100	      0.48795300	      0.25698800	     -1.84177400	      0.46634300	      0.13981700	     -1.58681700	      0.07149100	      0.25078000	     -2.08407500	      0.11963100	      0.14699900	     -1.69006100	      0.97336400	      0.19990100	     -1.68102200	      0.97526000	      0.30448500	     -1.69909900	      0.97146700	      0.09531700	     -1.88934100	      0.99673400	      0.25606700	     -1.89712900	      0.99720500	      0.17174200	     -1.61832800	      0.48874300	      0.31634300	     -1.84069300	      0.46840300	      0.08036300	     -1.63645300	      0.49853400	      0.19551600	     -1.84027100	      0.46638700	      0.19105700	     -1.59178600	      0.07050500	      0.28844000	     -2.08846300	      0.12188600	      0.10780800	     -1.58597100	      0.07596900	      0.21789400	     -2.07325900	      0.12746600	      0.17585600	     -1.82619300	      1.45234600	      0.21737900	     -1.72264400	      1.37832800	      0.29126600	     -1.73572200	      1.38230100	      0.13606500	     -1.74178300	      1.38182400	      0.21078900	     -1.70673500	      1.18041500	      0.19590900	     -1.62656900	      0.58846900	      0.40213400	     -1.66880500	      0.56816900	      0.12140000	     -1.62118100	      0.65571300	      0.33465100	     -1.73733800	      0.64093600	      0.08844200	     -1.60038100	      0.57906500	      0.30723900	     -1.76072600	      0.55699100	      0.09249200	     -1.58698000	      0.14605100	      0.35648300	     -1.93604400	      0.15800400	      0.14451700	     -1.60856700	      0.20151300	      0.29494300	     -1.96493700	      0.23635500	      0.13562500	     -1.46305300	      0.04583600	      0.24709900	     -1.98369200	      0.04347300	      0.14585800	    -50.64311358	    370.07822604	      1.04496493	     -1.58612524	      0.00000000	      0.25657523	     39.86207325	    287.31404714	     -1.98408293	     -1.96504065	      0.00000000	      0.15564606	      0.00000000	      1.11819189	      0.00000000	      0.00000000	      0.30618881	      0.00000000	     -1.76621628	      0.88954782	      0.20916928	     -1.76222861	      0.87627822	      0.26139089	     -1.77140331	      0.87435341	      0.15523404	     -1.62239063	      0.48795304	      0.25698760	     -1.84177387	      0.46634302	      0.13981742	     -1.58681667	      0.07149111	      0.25077951	     -2.08407474	      0.11963070	      0.14699893	     -1.69006073	      0.97336352	      0.19990115	     -1.68102205	      0.97525984	      0.30448505	     -1.69909942	      0.97146726	      0.09531725	     -1.88934135	      0.99673444	      0.25606689	     -1.89712930	      0.99720532	      0.17174183	     -1.61832786	      0.48874301	      0.31634349	     -1.84069276	      0.46840301	      0.08036292	     -1.63645267	      0.49853417	      0.19551571	     -1.84027088	      0.46638721	      0.19105658	     -1.59178627	      0.07050520	      0.28844026	     -2.08846259	      0.12188551	      0.10780822	     -1.58597064	      0.07596855	      0.21789412	     -2.07325888	      0.12746617	      0.17585646	     -1.82619321	      1.45234621	      0.21737877	     -1.72264433	      1.37832785	      0.29126614	     -1.73572218	      1.38230073	      0.13606521	     -1.74178267	      1.38182425	      0.21078868	     -1.70673490	      1.18041503	      0.19590853	     -1.62656868	      0.58846939	      0.40213448	     -1.66880536	      0.56816882	      0.12139982	     -1.62118053	      0.65571266	      0.33465150	     -1.73733795	      0.64093649	      0.08844185	     -1.60038114	      0.57906538	      0.30723906	     -1.76072586	      0.55699074	      0.09249238	     -1.58698022	      0.14605136	      0.35648307	     -1.93604422	      0.15800415	      0.14451720	     -1.60856688	      0.20151259	      0.29494333	     -1.96493721	      0.23635516	      0.13562459	     -1.46305251	      0.04583617	      0.24709919	     -1.98369241	      0.04347258	      0.14585790
      0.88333000	     -1.70218743	      0.95168390	      0.20066300	      5.34170761	     -1.32261398	      5.17587091	     13.86695190	      0.99481587	     -0.85929600	    -14.90818080	     -4.98965581	    -14.58040761	     -3.27456656	      4.70541474	    -26.26884435	      6.85937615	    -10.65884264	      3.01592005	      2.11462519	      0.00000000	      0.00000000	      0.00000000	      0.00000000	     -1.64718584	      0.97867071	      0.29478930	     -1.67324071	      0.97515381	      0.08346400	     -1.69063473	      0.95273973	      0.19961245	     -1.85641318	      0.97000130	      0.25745261	     -1.86959558	      0.96907483	      0.17027699	     -1.74931842	      0.89378226	      0.27640989	     -1.76150155	      0.88943508	      0.13806554	     -1.75540998	      0.89160867	      0.20723771	     -1.55577132	      0.49862897	      0.31485770	     -1.59583466	      0.50760262	      0.20148755	     -1.55407805	      0.62354513	      0.38863023	     -1.57087214	      0.68203823	      0.31704505	     -1.54710198	      0.60429616	      0.29358467	     -1.59171207	      0.06653216	      0.31385632	     -1.59788026	      0.06517215	      0.24560686	     -1.56637609	      0.14086734	      0.37637665	     -1.58796247	      0.19819898	      0.31573012	     -1.61608460	      0.50145210	      0.26974617	     -1.58558226	      0.08576438	      0.27148366	     -1.47337336	      0.04474472	      0.26091607	     -1.79941118	      0.45719215	      0.06016893	     -1.81464746	      0.46495740	      0.16702884	     -1.63683611	      0.57137862	      0.11804165	     -1.70175473	      0.64218580	      0.08131720	     -1.72546335	      0.55870957	      0.08009389	     -2.09254454	      0.12920232	      0.08822906	     -2.07883036	      0.12862129	      0.15671122	     -1.93700857	      0.14886663	      0.12719273	     -1.96086345	      0.22967314	      0.11839913	     -1.82967191	      0.47927325	      0.13311587	     -2.07306262	      0.14093918	      0.12856437	     -1.98678010	      0.04303326	      0.10980188	     -1.71852196	      1.35610757	      0.29504891	     -1.73004480	      1.36362297	      0.14000990	     -1.82321948	      1.43327520	      0.21784170	     -1.73684594	      1.36144787	      0.21456351	     -1.70175157	      1.16043888	      0.19552947	     -1.76033800	      0.88967000	      0.20952700	     -1.75541500	      0.87731400	      0.26220500	     -1.76430600	      0.87539500	      0.15602400	     -1.61855700	      0.48811100	      0.25795200	     -1.83197200	      0.46680700	      0.13926000	     -1.58642400	      0.07139700	      0.25114500	     -2.07918900	      0.12360200	      0.14612400	     -1.68309200	      0.97440900	      0.20091500	     -1.67434300	      0.97629800	      0.30540500	     -1.69184100	      0.97252100	      0.09642500	     -1.88271800	      0.99769000	      0.25645900	     -1.89040500	      0.99835700	      0.17213200	     -1.61431400	      0.48895400	      0.31729500	     -1.83124100	      0.46912500	      0.07980900	     -1.63173200	      0.49892900	      0.19677200	     -1.82910900	      0.46608000	      0.19080600	     -1.59132800	      0.07040400	      0.28881500	     -2.08411600	      0.12636900	      0.10703100	     -1.58533200	      0.07607800	      0.21833600	     -2.06811900	      0.13153200	      0.17486400	     -1.81961600	      1.45333900	      0.21920200	     -1.71601800	      1.37942700	      0.29314400	     -1.72894500	      1.38364000	      0.13785100	     -1.73508100	      1.38302300	      0.21260900	     -1.69960300	      1.18171200	      0.19742500	     -1.62158100	      0.58901400	      0.40310500	     -1.65909900	      0.56934600	      0.12015800	     -1.61570300	      0.65620900	      0.33570200	     -1.72858200	      0.64181100	      0.08789200	     -1.59534700	      0.57939900	      0.30844300	     -1.75115200	      0.55771100	      0.09188400	     -1.58575300	      0.14571900	      0.35702700	     -1.93081900	      0.15994100	      0.14189000	     -1.60688300	      0.20156000	      0.29580000	     -1.95866800	      0.23887000	      0.13435200	     -1.46243300	      0.04510100	      0.24745300	     -1.98235200	      0.04348700	      0.14576300	    -53.38956257	    391.23396970	     -2.88355459	     -1.58293799	      0.00000000	      0.25697055	     36.14553890	    249.86357030	     -3.03025795	     -1.96444519	      0.00000000	      0.15593225	      0.00000000	      1.21869434	      0.00000000	      0.00000000	      0.33451477	      0.00000000	     -1.76033759	      0.88966978	      0.20952651	     -1.75541508	      0.87731367	      0.26220548	     -1.76430559	      0.87539458	      0.15602434	     -1.61855674	      0.48811057	      0.25795200	     -1.83197188	      0.46680701	      0.13925974	     -1.58642411	      0.07139704	      0.25114539	     -2.07918882	      0.12360198	      0.14612447	     -1.68309188	      0.97440946	      0.20091483	     -1.67434287	      0.97629797	      0.30540469	     -1.69184077	      0.97252095	      0.09642497	     -1.88271785	      0.99768966	      0.25645900	     -1.89040518	      0.99835700	      0.17213207	     -1.61431432	      0.48895380	      0.31729457	     -1.83124149	      0.46912533	      0.07980940	     -1.63173187	      0.49892908	      0.19677243	     -1.82910943	      0.46608004	      0.19080634	     -1.59132767	      0.07040365	      0.28881460	     -2.08411574	      0.12636903	      0.10703075	     -1.58533192	      0.07607755	      0.21833633	     -2.06811905	      0.13153154	      0.17486405	     -1.81961596	      1.45333862	      0.21920238	     -1.71601784	      1.37942743	      0.29314357	     -1.72894490	      1.38363993	      0.13785091	     -1.73508096	      1.38302255	      0.21260931	     -1.69960308	      1.18171155	      0.19742452	     -1.62158096	      0.58901405	      0.40310517	     -1.65909934	      0.56934607	      0.12015820	     -1.61570311	      0.65620887	      0.33570197	     -1.72858191	      0.64181095	      0.08789174	     -1.59534681	      0.57939881	      0.30844277	     -1.75115228	      0.55771083	      0.09188388	     -1.58575344	      0.14571947	      0.35702720	     -1.93081868	      0.15994096	      0.14189033	     -1.60688329	      0.20155966	      0.29579991	     -1.95866799	      0.23886999	      0.13435245	     -1.46243262	      0.04510055	      0.24745308	     -1.98235214	      0.04348718	      0.14576341
